<svg width="40" height="48" viewBox="0 0 40 48" fill="none" xmlns="http://www.w3.org/2000/svg">
<path d="M25.7461 1.09082V11.9999C25.7461 12.6545 26.1825 13.0908 26.837 13.0908H37.7461" fill="white"/>
<path d="M25.7461 1.09082V11.9999C25.7461 12.6545 26.1825 13.0908 26.837 13.0908H37.7461" stroke="#888888" stroke-width="2" stroke-miterlimit="10" stroke-linejoin="round"/>
<path d="M24.4364 2.18182C24.7636 2.18182 24.9818 2.29091 25.2 2.50909L36.7636 13.7455C36.9818 13.9636 37.0909 14.1818 37.0909 14.5091V44.7273C37.0909 45.3818 36.6545 45.8182 36 45.8182H3.27273C2.61818 45.8182 2.18182 45.3818 2.18182 44.7273V3.27273C2.18182 2.61818 2.61818 2.18182 3.27273 2.18182H24.4364ZM24.4364 0H3.27273C1.41818 0 0 1.41818 0 3.27273V44.7273C0 46.5818 1.41818 48 3.27273 48H36C37.8545 48 39.2727 46.5818 39.2727 44.7273V14.5091C39.2727 13.6364 38.9455 12.7636 38.2909 12.1091L26.7273 0.872727C26.0727 0.327273 25.3091 0 24.4364 0Z" fill="#888888"/>
</svg>
